<?xml version="1.0" encoding="utf-8"?>
<!-- Generator: Adobe Illustrator 15.0.2, SVG Export Plug-In . SVG Version: 6.00 Build 0)  -->
<!DOCTYPE svg PUBLIC "-//W3C//DTD SVG 1.1//EN" "http://www.w3.org/Graphics/SVG/1.1/DTD/svg11.dtd">
<svg version="1.1" id="Layer_1" xmlns="http://www.w3.org/2000/svg" xmlns:xlink="http://www.w3.org/1999/xlink" x="0px" y="0px"
	 width="280px" height="70px" viewBox="0 0 280 70" enable-background="new 0 0 280 70" xml:space="preserve">
<rect fill="#E36F1E" width="280" height="70"/>
<g>
	<polygon fill="#FFFFFF" points="34.476,46.381 29.97,46.381 18.394,35.137 18.394,46.381 15.125,46.381 15.125,23.624 
		18.394,23.624 18.394,34.032 27.969,23.624 32.04,23.624 22.13,34.401 	"/>
	<rect x="40.38" y="23.624" fill="#FFFFFF" width="3.271" height="22.757"/>
	<polygon fill="#FFFFFF" points="73.08,46.381 70.278,46.381 55.062,28.862 55.062,46.381 51.994,46.381 51.994,23.624 
		54.595,23.624 70.01,41.242 70.01,23.624 73.08,23.624 	"/>
	<polygon fill="#FFFFFF" points="94.334,26.561 84.69,26.561 84.69,33.432 93.999,33.432 93.999,36.37 84.69,36.37 84.69,43.443 
		94.634,43.443 94.634,46.381 81.422,46.381 81.422,23.624 94.334,23.624 	"/>
	<polygon fill="#FFFFFF" points="118.523,26.561 110.648,26.561 110.648,46.381 107.378,46.381 107.378,26.561 99.503,26.561 
		99.503,23.624 118.523,23.624 	"/>
	<rect x="124.963" y="23.624" fill="#FFFFFF" width="3.272" height="22.757"/>
	<path fill="#FFFFFF" d="M155.99,28.694c-2.804-1.633-5.204-2.365-7.838-2.365c-5.208,0-9.078,3.701-9.078,8.706
		c0,5.104,3.735,8.643,9.211,8.643c2.567,0,5.371-0.9,7.938-2.572v3.572c-2.235,1.168-4.671,2.002-8.24,2.002
		c-8.541,0-12.278-6.572-12.278-11.344c0-6.94,5.237-12.015,12.479-12.015c2.334,0,4.703,0.569,7.807,1.871V28.694z"/>
	<path fill="#FFFFFF" d="M179.484,43.443h5.205c7.404,0,9.107-5.639,9.107-8.444c0-4.569-2.904-8.438-9.277-8.438h-5.035V43.443z
		 M176.213,23.624h8.84c8.41,0,12.115,6.006,12.115,11.375c0,5.841-4.574,11.382-12.08,11.382h-8.875V23.624z"/>
	<path fill="#FFFFFF" d="M207.678,36.737h7.074l-3.668-8.24L207.678,36.737z M222.459,46.381h-3.336l-3.037-6.707h-9.674
		l-2.871,6.707h-3.338l9.775-22.89h2.307L222.459,46.381z"/>
	<polygon fill="#FFFFFF" points="242.049,26.561 234.176,26.561 234.176,46.381 230.904,46.381 230.904,26.561 223.031,26.561 
		223.031,23.624 242.049,23.624 	"/>
	<path fill="#FFFFFF" d="M250.094,36.737h7.074l-3.67-8.24L250.094,36.737z M264.875,46.381h-3.336l-3.037-6.707h-9.674
		l-2.871,6.707h-3.336l9.775-22.89h2.305L264.875,46.381z"/>
</g>
</svg>
