<?xml version="1.0" encoding="UTF-8"?>
<svg width="700px" height="700px" viewBox="0 0 700 700" version="1.1" xmlns="http://www.w3.org/2000/svg" xmlns:xlink="http://www.w3.org/1999/xlink">
    <!-- Generator: Sketch 40.2 (33826) - http://www.bohemiancoding.com/sketch -->
    <title>Desktop HD</title>
    <desc>Created with Sketch.</desc>
    <defs>
        <circle id="path-1" cx="350" cy="350" r="350"></circle>
        <circle id="path-3" cx="325" cy="325" r="325"></circle>
        <mask id="mask-5" maskContentUnits="userSpaceOnUse" maskUnits="objectBoundingBox" x="-10" y="-10" width="670" height="670">
            <rect x="-10" y="-10" width="670" height="670" fill="white"></rect>
            <use xlink:href="#path-3" fill="black"></use>
        </mask>
        <polygon id="path-6" points="60.5079182 0.347092476 0.901914885 0.347092476 0.901914885 37.0345918 60.5079182 37.0345918 60.5079182 0.347092476"></polygon>
        <polygon id="path-8" points="307.272256 471.811731 307.272256 0.816344828 0.0608292845 0.816344828 0.0608292845 471.811731 307.272256 471.811731"></polygon>
    </defs>
    <g id="Welcome" stroke="none" stroke-width="1" fill="none" fill-rule="evenodd">
        <g id="Desktop-HD">
            <mask id="mask-2" fill="white">
                <use xlink:href="#path-1"></use>
            </mask>
            <use id="Oval-Copy" fill="#EEF8FA" xlink:href="#path-1"></use>
            <g id="Group" transform="translate(25.000000, 25.000000)">
                <mask id="mask-4" fill="white">
                    <use xlink:href="#path-3"></use>
                </mask>
                <g id="Oval">
                    <use fill="#EEF8FA" fill-rule="evenodd" xlink:href="#path-3"></use>
                    <use stroke="#FFFFFF" mask="url(#mask-5)" stroke-width="20" xlink:href="#path-3"></use>
                </g>
                <g id="wally" mask="url(#mask-4)">
                    <g transform="translate(112.000000, 71.000000)">
                        <polyline id="Fill-1" fill="#F7BF94" points="307.52349 9.00731034 397.796648 68.7978981 396.740468 121.46423 292.576568 27.7701082"></polyline>
                        <g id="Group-32" stroke-width="1" fill="none" transform="translate(0.000000, 0.695227)">
                            <path d="M265.751791,58.1500807 C263.40403,55.0450102 264.600826,47.9019929 264.600826,47.9019929 C267.103784,35.3993676 270.46606,25.5838425 273.601268,18.2302766 L288.201338,24.7166324 C284.103694,32.450645 278.983202,45.9945478 278.983202,45.9945478 C273.990826,60.35146 268.107884,61.2728707 265.751791,58.1500807" id="Fill-2" fill="#F7BF94"></path>
                            <path d="M253.665616,48.1269255 C251.315772,45.021855 252.512568,37.8590337 252.512568,37.8590337 C255.025942,25.3574506 258.376761,15.5429679 261.523426,8.192529 L276.115163,14.6757578 C272.014395,22.4285321 266.902235,35.9536732 266.902235,35.9536732 C261.912984,50.3283049 256.020668,51.2486732 253.665616,48.1269255" id="Fill-4" fill="#F7BF94"></path>
                            <path d="M282.084662,56.0695063 C279.744193,53.1385031 280.743085,46.5833542 280.743085,46.5833542 C282.925231,35.1386834 285.982319,26.1903683 288.876918,19.4965909 L303.236379,25.8787147 C299.412675,32.8997806 294.735903,45.2314655 294.735903,45.2314655 C290.177873,58.3417633 284.449088,58.9994671 282.084662,56.0695063" id="Fill-6" fill="#F7BF94"></path>
                            <path d="M296.034358,59.9883158 C293.87721,56.9874773 295.126086,49.9664114 295.126086,49.9664114 C297.680082,37.6868425 300.990279,28.0120306 304.048408,20.7804161 L317.644378,26.7966857 C313.674851,34.4629475 308.648102,47.8140212 308.648102,47.8140212 C303.745303,61.9655964 298.198798,62.9703926 296.034358,59.9883158" id="Fill-8" fill="#F7BF94"></path>
                            <g id="Group-12" transform="translate(258.316140, 0.000000)">
                                <mask id="mask-7" fill="white">
                                    <use xlink:href="#path-6"></use>
                                </mask>
                                <g id="Clip-11"></g>
                                <path d="M27.8495005,35.9192766 C44.232785,39.3881168 58.7901494,34.4965102 60.3671278,24.9759616 C61.9534805,15.455413 49.952196,4.9467453 33.5595371,1.46122806 C17.1835438,-2.00552743 2.61784659,2.88503683 1.04295141,12.4035008 C-0.545484526,21.9073723 11.466216,32.4525212 27.8495005,35.9192766" id="Fill-10" fill="#F7BF94" mask="url(#mask-7)"></path>
                            </g>
                            <path d="M339.27898,282.594877 L136.848704,276.453529 C136.848704,276.453529 163.093832,270.577973 162.454291,251.067832 C164.688517,216.559752 165.606165,181.599305 165.961349,157.235081 C156.36303,156.367871 148.842697,148.324289 148.842697,138.492087 C148.842697,128.536891 156.561975,120.420347 166.317576,119.727205 C169.289253,54.6822829 229.239429,58.998529 231.30075,58.8786622 C239.263762,58.4096183 293.573689,55.1315227 296.302674,119.691766 C296.458913,119.675089 296.615153,119.658411 296.769309,119.658411 C307.166534,119.658411 315.58889,128.085567 315.58889,138.492087 C315.58889,148.687016 307.481097,156.975543 297.368228,157.288239 C298.157759,181.878647 299.37122,215.518474 300.833622,240.142236 C302.722038,260.3278 339.27898,282.594877 339.27898,282.594877" id="Fill-13" fill="#F3BE92"></path>
                            <path d="M5.32391647,495.854123 C9.62258869,424.287407 25.789221,374.658394 68.341597,329.623927 C114.980159,287.050377 137.896342,263.275063 137.896342,263.275063 C146.484312,255.525416 155.670159,246.630259 155.670159,246.630259 L306.683025,246.630259 C306.683025,246.630259 308.511028,251.017383 324.46205,263.275063 C324.46205,263.275063 417.285038,300.402493 450.834888,332.346466 C493.792446,374.727187 374.429557,386.016553 379.855238,478.842422 C385.998579,583.945777 383.181058,663.957368 383.181058,663.957368 L0.00447886855,663.957368 C0.00447886855,663.957368 -0.326749085,590.171553 5.32391647,495.854123" id="Fill-15" fill="#B0A23B"></path>
                            <path d="M84.7060286,467.189288 C84.7060286,467.189288 73.0526376,534.124977 73.4963581,663.957368 L82.2291101,663.957368 C82.2291101,663.957368 78.9803681,576.090855 84.7060286,467.189288" id="Fill-17" fill="#938E34"></path>
                            <path d="M292.76718,96.4043621 C292.76718,96.4043621 265.11902,120.768586 232.203503,120.768586 C232.203503,120.768586 213.524538,149.845138 236.155323,186.560851 C236.155323,186.560851 281.165869,186.594205 290.645446,189.873343 C290.645446,189.873343 303.017539,193.947771 302.636315,182.710522 C302.636315,182.710522 302.368624,177.940867 298.960518,167.241455 C298.960518,167.241455 295.002448,158.901854 296.770039,129.83781 C296.770039,129.83781 313.413722,104.242607 292.76718,96.4043621" id="Fill-19" fill="#956A49"></path>
                            <path d="M169.990873,96.4043621 C169.990873,96.4043621 200.159698,120.768586 232.20444,120.768586 C232.20444,120.768586 228.607805,144.178045 236.154177,186.560851 C236.154177,186.560851 181.593226,186.594205 172.121981,189.873343 C172.121981,189.873343 159.749888,193.947771 160.131112,182.710522 C160.131112,182.710522 160.400886,177.940867 163.805868,167.241455 C163.805868,167.241455 168.561801,165.645663 165.988014,129.422967 C165.988014,129.422967 152.628487,112.218437 169.990873,96.4043621" id="Fill-21" fill="#956A49"></path>
                            <polygon id="Fill-23" fill="#FFFFFF" points="306.683233 246.629738 155.670368 246.629738 160.210691 227.126893 302.591839 227.126893"></polygon>
                            <polygon id="Fill-25" fill="#938E34" points="306.683233 246.629738 162.987589 253.690412 155.670368 246.629738"></polygon>
                            <path d="M212.89885,65.3119639 C212.89885,65.3119639 190.586794,70.2713213 181.90508,87.4393699 L190.178488,92.8146129 C190.178488,92.8146129 198.219619,74.6240486 215.176824,67.584221 L212.89885,65.3119639 Z" id="Fill-27" fill="#FFFFFF"></path>
                            <g id="Group-31" transform="translate(317.687188, 21.888715)">
                                <mask id="mask-9" fill="white">
                                    <use xlink:href="#path-8"></use>
                                </mask>
                                <g id="Clip-30"></g>
                                <path d="M24.4602469,0.816344828 C24.4602469,0.816344828 306.158164,183.937332 307.268506,212.79187 C308.377808,241.648492 79.9117644,344.862121 57.7309491,450.294848 C35.5490922,555.727575 0.0608292845,239.429393 0.0608292845,239.429393 C0.0608292845,239.429393 158.65444,241.648492 156.435838,196.143939 C154.22036,150.642513 3.38873278,38.5493621 3.38873278,38.5493621 L24.4602469,0.816344828 Z" id="Fill-29" fill="#B0A23B" mask="url(#mask-9)"></path>
                            </g>
                        </g>
                    </g>
                </g>
            </g>
        </g>
    </g>
</svg>